<svg width="109" height="36" viewBox="0 0 109 36" fill="none" xmlns="http://www.w3.org/2000/svg">
<path d="M26.8664 25.5572C27.7935 21.9335 27.2566 18.0946 25.37 14.8568C23.4909 11.6139 20.408 9.22517 16.7774 8.19922C16.0024 9.18119 15.4047 10.2885 15.0109 11.4722C16.5137 11.7828 17.9329 12.4049 19.1755 13.2975C20.4181 14.1901 21.4559 15.333 22.2206 16.6512C22.4736 17.0867 22.696 17.539 22.886 18.0049C23.8502 20.3724 23.9349 23.002 23.1248 25.4256C20.6019 24.9018 18.3485 23.5085 16.7656 21.4936C15.4655 21.861 14.1196 22.0457 12.7676 22.0426C14.0428 24.2324 15.8767 26.0518 18.0855 27.3187C20.2943 28.5855 22.8006 29.2553 25.3531 29.2609C26.0284 28.1019 26.5379 26.8557 26.8672 25.5581" fill="#3B438B"/>
<path d="M26.9002 4.15706C26.572 2.85743 26.0624 1.60946 25.3862 0.449221C23.1761 0.448038 20.9948 0.945369 19.0078 1.90347C17.0208 2.86158 15.2803 4.2553 13.9183 5.97888C12.5562 7.70246 11.6085 9.71065 11.147 11.851C10.6854 13.9914 10.7222 16.2078 11.2545 18.332C12.5016 18.5083 13.7701 18.4689 15.0036 18.2153C14.5271 16.7704 14.3636 15.2421 14.524 13.7303C14.6842 12.2185 15.1647 10.7571 15.9338 9.44169C16.703 8.12624 17.7437 6.98615 18.9878 6.09595C20.232 5.20574 21.6518 4.58538 23.1545 4.27535C23.956 6.70196 23.8637 9.33131 22.8938 11.6969C23.8639 12.6301 24.6979 13.6927 25.3718 14.8541C27.2608 11.6187 27.8093 7.78391 26.9019 4.15623" fill="#F1BC47"/>
<path d="M22.2214 16.6471C21.8474 16.0039 21.4077 15.4004 20.9092 14.8461C19.8843 15.9784 18.6298 16.8837 17.2275 17.5031C15.8252 18.1224 14.3067 18.4417 12.7713 18.4401C11.2359 18.4386 9.71811 18.1161 8.3171 17.494C6.91609 16.8718 5.66344 15.9638 4.64097 14.8294C6.36427 12.9282 8.71041 11.6911 11.2652 11.3365C11.5944 10.0385 12.104 8.79209 12.7793 7.63282C10.2257 7.63107 7.71671 8.29526 5.50458 9.55858C3.29246 10.8218 1.45526 12.6397 0.177734 14.8294C1.28231 16.7252 2.8084 18.3469 4.64021 19.5715C6.47202 20.7961 8.56141 21.5914 10.7499 21.8971C12.9383 22.2028 15.1683 22.0107 17.2707 21.3356C19.373 20.6605 21.2925 19.5201 22.8834 18.0008C22.6944 17.535 22.4733 17.0827 22.2214 16.6471Z" fill="#44C2D8"/>
<path d="M38.3149 12.5634C39.2032 12.193 40.2277 12.0078 41.3885 12.0078V16.0064C40.9018 15.9697 40.5742 15.9511 40.4061 15.9505C39.1521 15.9505 38.1708 16.2979 37.4619 16.9927C36.7531 17.6875 36.3976 18.7299 36.3953 20.1199V27.1799H32.0137V12.2294H36.196V14.2029C36.7327 13.4699 37.4671 12.9014 38.3149 12.5626" fill="#3B438B"/>
<path d="M59.1837 12.2311V27.1858H55.0014V25.4622C53.9163 26.7589 52.3447 27.4073 50.2866 27.4073C48.8645 27.4073 47.5781 27.0922 46.4274 26.4618C45.2827 25.838 44.3427 24.9022 43.7188 23.7653C43.0638 22.599 42.7363 21.2465 42.7363 19.7076C42.7363 18.1687 43.0638 16.8158 43.7188 15.649C44.3429 14.5125 45.2828 13.577 46.4274 12.9533C47.5781 12.3235 48.8645 12.0084 50.2866 12.0078C52.2135 12.0078 53.7197 12.6101 54.8054 13.8147V12.2319L59.1837 12.2311ZM53.7952 22.7273C54.5241 21.977 54.8887 20.9718 54.8887 19.7117C54.8887 18.4516 54.5241 17.4464 53.7952 16.6961C53.0661 15.9458 52.1493 15.5707 51.0445 15.5707C49.923 15.5707 48.9977 15.9458 48.2687 16.6961C47.5397 17.4464 47.1752 18.4516 47.1752 19.7117C47.1752 20.9718 47.5397 21.977 48.2687 22.7273C48.9977 23.4776 49.923 23.8528 51.0445 23.8528C52.1482 23.8528 53.065 23.4776 53.7952 22.7273Z" fill="#3B438B"/>
<path d="M87.067 13.6613C88.1802 14.7642 88.7367 16.418 88.7367 18.6228V27.1847H84.3584V19.2901C84.3584 18.1044 84.1108 17.2197 83.615 16.636C83.1192 16.0523 82.413 15.7605 81.4962 15.7605C80.4663 15.7605 79.6532 16.0895 79.0569 16.7477C78.4601 17.4057 78.1607 18.3832 78.1575 19.6799V27.1847H73.7792V19.2901C73.7792 16.937 72.826 15.7605 70.9196 15.7605C69.9101 15.7605 69.1053 16.0895 68.5052 16.7477C67.9051 17.4057 67.6057 18.3832 67.607 19.6799V27.1847H63.2285V12.2301H67.4106V13.9537C67.9762 13.3207 68.6824 12.826 69.4731 12.5083C70.3246 12.1678 71.2362 11.9979 72.1542 12.0085C73.1535 11.9939 74.1432 12.2079 75.0452 12.6341C75.8935 13.0405 76.6119 13.6706 77.1224 14.4551C77.7436 13.6736 78.5484 13.0535 79.4657 12.6483C80.4407 12.216 81.4988 11.998 82.5671 12.0094C84.4569 12.0094 85.9584 12.5605 87.0715 13.6629" fill="#3B438B"/>
<path d="M108.162 12.2302V27.1848H103.984V25.4613C102.896 26.7581 101.323 27.4065 99.2649 27.4065C97.8428 27.4065 96.557 27.0913 95.4061 26.461C94.261 25.8372 93.3212 24.9013 92.6975 23.7645C92.0424 22.5982 91.7148 21.2456 91.7148 19.7067C91.7148 18.1678 92.0424 16.815 92.6975 15.6481C93.3212 14.5122 94.2603 13.577 95.4042 12.9533C96.5551 12.3235 97.8415 12.0083 99.2637 12.0078C101.191 12.0078 102.696 12.6101 103.782 13.8147V12.2319L108.162 12.2302ZM102.774 22.7265C103.503 21.9762 103.867 20.971 103.867 19.7109C103.867 18.4508 103.503 17.4456 102.774 16.6953C102.045 15.945 101.128 15.5699 100.023 15.5699C98.9016 15.5699 97.9765 15.945 97.2472 16.6953C96.5179 17.4456 96.1539 18.4508 96.1539 19.7109C96.1539 20.971 96.5179 21.9762 97.2472 22.7265C97.9765 23.4768 98.9016 23.8519 100.023 23.8519C101.127 23.8519 102.043 23.4768 102.774 22.7265Z" fill="#3B438B"/>
<path d="M37.5447 2.4355V7.5678H36.6447V6.7548C36.4411 7.0348 36.1682 7.25828 35.8523 7.40374C35.5215 7.55456 35.1608 7.63052 34.7966 7.62613C34.3264 7.63207 33.8628 7.51723 33.4508 7.2929C33.0577 7.07801 32.7341 6.75745 32.5171 6.36827C32.2954 5.94572 32.1797 5.47657 32.1797 5.00042C32.1797 4.52427 32.2954 4.05511 32.5171 3.63257C32.7358 3.24678 33.0592 2.92934 33.4508 2.71623C33.8628 2.49202 34.3265 2.37722 34.7966 2.38302C35.15 2.37924 35.5002 2.45023 35.8237 2.59127C36.1329 2.72719 36.4021 2.93875 36.606 3.20606V2.43134L37.5447 2.4355ZM35.764 6.58485C36.0295 6.43496 36.2466 6.21336 36.3898 5.94591C36.5377 5.65271 36.6148 5.32944 36.6148 5.00167C36.6148 4.6739 36.5377 4.35062 36.3898 4.05742C36.2472 3.79079 36.0299 3.57065 35.764 3.42348C35.4897 3.27729 35.183 3.20077 34.8715 3.20077C34.56 3.20077 34.2533 3.27729 33.979 3.42348C33.7143 3.57268 33.4975 3.79267 33.3531 4.05826C33.2021 4.35053 33.1234 4.67417 33.1234 5.0025C33.1234 5.33083 33.2021 5.65447 33.3531 5.94675C33.4982 6.21286 33.7149 6.43401 33.979 6.58568C34.2524 6.73471 34.5594 6.81287 34.8715 6.81287C35.1835 6.81287 35.4906 6.73471 35.764 6.58568" fill="#3B438B"/>
<path d="M44.478 7.4566C44.1466 7.3725 43.8345 7.22627 43.5586 7.02591L43.9497 6.28949C44.2034 6.46298 44.4842 6.59386 44.7808 6.67685C45.101 6.77278 45.4338 6.82161 45.7684 6.8218C46.5899 6.8218 47.0007 6.58938 47.0007 6.12455C47.0034 6.05445 46.9897 5.98468 46.9605 5.92076C46.9313 5.85685 46.8874 5.80055 46.8324 5.75635C46.7104 5.66074 46.5685 5.59303 46.4169 5.55808C46.2487 5.51643 46.0123 5.4695 45.7078 5.4173C45.3619 5.36882 45.0203 5.29446 44.6858 5.19488C44.4258 5.11374 44.1915 4.96705 44.0061 4.7692C43.8171 4.56927 43.7226 4.28854 43.7226 3.927C43.7183 3.70661 43.77 3.48867 43.8729 3.2932C43.9758 3.09772 44.1265 2.93097 44.3114 2.80823C44.704 2.52722 45.2289 2.38672 45.8861 2.38672C46.2354 2.38719 46.5834 2.42943 46.9224 2.51251C47.2228 2.57838 47.5101 2.69294 47.7729 2.85155L47.3725 3.58795C46.9247 3.31014 46.4043 3.16877 45.876 3.18143C45.4784 3.18143 45.1753 3.24586 44.9667 3.3747C44.8725 3.42417 44.7937 3.49802 44.7386 3.5884C44.6835 3.67877 44.6542 3.78227 44.6538 3.88785C44.6503 3.96301 44.6643 4.03797 44.6948 4.10689C44.7253 4.17581 44.7714 4.23683 44.8296 4.2852C44.957 4.38713 45.1055 4.45995 45.2645 4.49846C45.4372 4.54345 45.68 4.5951 45.993 4.65341C46.3341 4.70735 46.6713 4.78333 47.0023 4.88082C47.255 4.95852 47.4826 5.1004 47.6627 5.29234C47.8449 5.48617 47.9363 5.75718 47.9369 6.10539C47.9413 6.32581 47.8882 6.54362 47.7829 6.73783C47.6776 6.93206 47.5235 7.09612 47.3354 7.21419C46.9345 7.48851 46.3886 7.6257 45.6977 7.6257C45.2844 7.62796 44.8728 7.57189 44.4755 7.45905" fill="#3B438B"/>
<path d="M58.833 2.4375V7.56982H57.9431V6.79513C57.7523 7.06117 57.4945 7.27316 57.1953 7.4099C56.8795 7.55645 56.5346 7.63099 56.1859 7.62815C55.495 7.62815 54.9507 7.43935 54.5531 7.06169C54.1556 6.68404 53.9568 6.12729 53.9568 5.39144V2.4375H54.8955V5.28482C54.8955 5.78464 55.0161 6.16061 55.2572 6.41275C55.4983 6.66488 55.8424 6.79235 56.2893 6.79513C56.7845 6.79513 57.1771 6.64655 57.467 6.34944C57.7569 6.05232 57.9002 5.63275 57.8968 5.09072V2.4375H58.833Z" fill="#3B438B"/>
<path d="M67.1347 2.62021C67.5 2.45588 67.8979 2.37637 68.2984 2.3878V3.28831C68.2267 3.28086 68.1551 3.27752 68.0828 3.27831C67.5742 3.27831 67.175 3.42853 66.8852 3.72898C66.5954 4.02943 66.4502 4.45706 66.4502 5.01186V7.56846H65.5117V2.43611H66.4105V3.2983C66.5724 3.00173 66.8264 2.76416 67.1341 2.62021" fill="#3B438B"/>
<path d="M79.1799 2.4355V7.5678H78.2798V6.7548C78.0763 7.0348 77.8032 7.25828 77.4871 7.40374C77.1564 7.55456 76.7956 7.63052 76.4316 7.62613C75.9614 7.63207 75.4976 7.51723 75.0856 7.2929C74.6928 7.07801 74.3691 6.75745 74.1522 6.36827C73.9302 5.94572 73.8145 5.47657 73.8145 5.00042C73.8145 4.52427 73.9302 4.05511 74.1522 3.63257C74.371 3.24678 74.6941 2.92934 75.0856 2.71623C75.4976 2.49202 75.9614 2.37722 76.4316 2.38302C76.7847 2.37926 77.1353 2.45026 77.4584 2.59127C77.768 2.72719 78.0373 2.93875 78.2407 3.20606V2.43134L79.1799 2.4355ZM77.4008 6.58485C77.6663 6.43496 77.8831 6.21336 78.0264 5.94591C78.1742 5.65271 78.2516 5.32944 78.2516 5.00167C78.2516 4.6739 78.1742 4.35062 78.0264 4.05742C77.8838 3.79049 77.6669 3.57004 77.4008 3.42265C77.1263 3.27646 76.8199 3.19994 76.5084 3.19994C76.1968 3.19994 75.8897 3.27646 75.6159 3.42265C75.3511 3.57182 75.1342 3.79181 74.9896 4.05742C74.8387 4.34968 74.76 4.67333 74.76 5.00167C74.76 5.33001 74.8387 5.65366 74.9896 5.94591C75.1349 6.21203 75.3517 6.43317 75.6159 6.58485C75.8891 6.73387 76.1962 6.81209 76.5084 6.81209C76.8205 6.81209 77.127 6.73387 77.4008 6.58485Z" fill="#3B438B"/>
<path d="M90.1877 2.95357C90.5753 3.33121 90.7692 3.8849 90.7698 4.61465V7.56861H89.8307V4.72044C89.8307 4.22062 89.7104 3.84603 89.4692 3.59667C89.2281 3.34732 88.8826 3.22153 88.4329 3.21931C87.9243 3.21931 87.5232 3.3662 87.2302 3.65998C86.9365 3.95377 86.7901 4.37501 86.7901 4.9237V7.56777H85.8516V2.43542H86.7504V3.21014C86.9455 2.94107 87.211 2.73014 87.5187 2.60036C87.8661 2.4534 88.241 2.38073 88.619 2.3871C89.2773 2.3871 89.8006 2.57593 90.1883 2.95357" fill="#3B438B"/>
<path d="M97.6637 7.4566C97.3323 7.37244 97.0201 7.22627 96.7444 7.02591L97.1353 6.28949C97.3892 6.46296 97.6701 6.59384 97.9663 6.67685C98.2868 6.77278 98.6194 6.82161 98.954 6.8218C99.7754 6.8218 100.186 6.58938 100.186 6.12455C100.189 6.05445 100.175 5.98468 100.146 5.92076C100.117 5.85685 100.073 5.80056 100.018 5.75634C99.8957 5.66076 99.7543 5.59306 99.6027 5.55808C99.4345 5.51643 99.1978 5.4695 98.8932 5.4173C98.5478 5.3688 98.2062 5.29445 97.8716 5.19488C97.6112 5.11377 97.3771 4.96708 97.1916 4.7692C97.0028 4.56927 96.9082 4.28854 96.9082 3.927C96.9037 3.70661 96.9555 3.48867 97.0585 3.2932C97.1615 3.09772 97.3125 2.93097 97.4973 2.80823C97.8895 2.52722 98.4147 2.38672 99.0717 2.38672C99.421 2.38719 99.769 2.42943 100.108 2.51251C100.409 2.57838 100.696 2.69294 100.958 2.85155L100.557 3.58795C100.109 3.31014 99.5893 3.16877 99.0608 3.18143C98.6629 3.18143 98.3603 3.24586 98.1518 3.3747C98.0571 3.42417 97.9784 3.49802 97.9234 3.5884C97.8684 3.67877 97.839 3.78227 97.8383 3.88785C97.8351 3.96301 97.8492 4.03797 97.8793 4.10689C97.91 4.17581 97.956 4.23683 98.0143 4.2852C98.1416 4.38715 98.29 4.45997 98.4493 4.49846C98.622 4.54345 98.8651 4.5951 99.1779 4.65341C99.5189 4.70737 99.856 4.78334 100.187 4.88082C100.439 4.95852 100.667 5.1004 100.848 5.29234C101.032 5.48506 101.124 5.75634 101.124 6.10622C101.128 6.32664 101.075 6.54446 100.97 6.73867C100.865 6.9329 100.711 7.09696 100.523 7.21497C100.122 7.48935 99.5758 7.62654 98.8849 7.62654C98.4717 7.6288 98.0603 7.57273 97.663 7.45989" fill="#3B438B"/>
<path d="M107.201 1.27418C107.142 1.2196 107.096 1.15354 107.064 1.08024C107.034 1.00694 107.018 0.92801 107.02 0.848502C107.018 0.768288 107.034 0.688692 107.065 0.61462C107.096 0.540548 107.142 0.473573 107.201 0.417824C107.26 0.358773 107.331 0.312415 107.409 0.281612C107.487 0.250808 107.571 0.23621 107.655 0.238719C107.823 0.232515 107.987 0.292415 108.11 0.405326C108.169 0.458856 108.215 0.52413 108.247 0.596807C108.278 0.669483 108.293 0.7479 108.291 0.826845C108.293 0.908639 108.278 0.989933 108.247 1.06572C108.216 1.14151 108.169 1.21019 108.11 1.26752C108.051 1.32657 107.98 1.37293 107.902 1.40373C107.824 1.43454 107.739 1.44913 107.655 1.44662C107.572 1.44926 107.489 1.4352 107.41 1.4053C107.332 1.37538 107.261 1.33023 107.201 1.27252V1.27418ZM107.186 2.43877H108.125V7.5711H107.186V2.43877Z" fill="#3B438B"/>
<path d="M31.9277 34.5727L32.599 30.7891H33.1339L34.0399 33.4273L35.8737 30.7891H36.4145L35.7433 34.5727H35.2848L35.808 31.5996L34.1055 34.0321H33.7615L32.9152 31.6054L32.3862 34.5727H31.9277Z" fill="#3B438B"/>
<path d="M37.9161 34.638C37.7996 34.6446 37.6829 34.6283 37.5728 34.5898C37.4628 34.5514 37.3616 34.4916 37.2751 34.4139C37.1203 34.2645 37.043 34.0509 37.043 33.7732C37.043 33.7233 37.043 33.6716 37.0489 33.6191C37.0527 33.5655 37.06 33.512 37.0707 33.4592L37.3542 31.8915H37.8126L37.5401 33.4101C37.5328 33.4567 37.5263 33.5017 37.5207 33.545C37.5153 33.5862 37.5125 33.6277 37.5123 33.6691C37.5123 34.0545 37.7033 34.2473 38.0852 34.2473C38.3135 34.2477 38.5337 34.1629 38.7017 34.0098C38.8961 33.8289 39.0248 33.5893 39.0677 33.3284L39.32 31.8906H39.7785L39.3074 34.5713H38.8927L38.9474 34.0848C38.8341 34.2537 38.6804 34.3923 38.4998 34.488C38.3208 34.5845 38.12 34.6347 37.9161 34.6338" fill="#3B438B"/>
<path d="M41.6813 34.6366C41.4705 34.6428 41.2625 34.5875 41.0832 34.4775C40.9185 34.3723 40.7871 34.2233 40.7038 34.0476C40.6152 33.8618 40.5703 33.6584 40.5726 33.4529C40.5666 33.16 40.637 32.8704 40.777 32.6124C40.9074 32.3754 41.0986 32.1769 41.3313 32.0367C41.5665 31.8955 41.837 31.8226 42.1119 31.826C42.3176 31.8176 42.5216 31.8664 42.7008 31.9667C42.8478 32.0553 42.965 32.1852 43.0373 32.3399L43.3359 30.6797H43.7943L43.1003 34.57H42.6798L42.7176 34.1268C42.6016 34.2656 42.4632 34.3844 42.308 34.4783C42.1181 34.5886 41.9004 34.643 41.6804 34.635L41.6813 34.6366ZM41.8117 34.2401C42.0095 34.2434 42.2034 34.1851 42.366 34.0735C42.5308 33.9584 42.6624 33.8028 42.7479 33.622C42.8418 33.4272 42.8892 33.2138 42.8867 32.998C42.8966 32.7909 42.8241 32.5881 42.6848 32.4333C42.6125 32.3606 42.5255 32.3041 42.4295 32.2673C42.3336 32.2305 42.2307 32.2144 42.1279 32.22C41.9309 32.2172 41.7373 32.2716 41.5711 32.3766C41.407 32.4814 41.2743 32.6278 41.1867 32.8006C41.0913 32.9892 41.0434 33.1978 41.0471 33.4087C41.0394 33.6251 41.1121 33.8367 41.2514 34.0035C41.3205 34.0824 41.4066 34.1448 41.5036 34.1859C41.6005 34.2271 41.7055 34.2459 41.8108 34.241" fill="#3B438B"/>
<path d="M45.139 34.6405C44.9676 34.6474 44.797 34.6131 44.6419 34.5405C44.5231 34.4818 44.4245 34.3897 44.3584 34.2756C44.2971 34.1675 44.2652 34.0455 44.2659 33.9216C44.2612 33.7363 44.3206 33.5549 44.4341 33.4076C44.5574 33.2556 44.7207 33.1403 44.906 33.0744C45.1323 32.9926 45.3718 32.9531 45.6126 32.9578H46.3385L46.3444 32.9253C46.3558 32.8645 46.3616 32.8029 46.3621 32.7411C46.3672 32.6685 46.3565 32.5957 46.3307 32.5275C46.3048 32.4594 46.2645 32.3976 46.2123 32.3463C46.0947 32.2499 45.9442 32.2015 45.7918 32.2114C45.6208 32.2105 45.4528 32.2563 45.3064 32.3438C45.1583 32.4305 45.0476 32.568 44.9952 32.7303H44.5199C44.5727 32.5454 44.6713 32.3764 44.8068 32.2388C44.9403 32.1048 45.1012 32.0007 45.2786 31.9331C45.4613 31.8629 45.6556 31.8273 45.8515 31.8281C46.175 31.8281 46.4179 31.9036 46.5799 32.0547C46.6621 32.1346 46.7263 32.2309 46.7682 32.3372C46.8101 32.4434 46.8288 32.5572 46.823 32.6712C46.823 32.7112 46.823 32.7545 46.8171 32.7953C46.8112 32.8361 46.8079 32.8786 46.8003 32.9253L46.5143 34.5738H46.0996L46.1543 34.0982C46.0493 34.2526 45.9125 34.3835 45.7531 34.4822C45.5679 34.5918 45.3546 34.6462 45.139 34.6388V34.6405ZM45.2753 34.2547C45.4426 34.2568 45.6068 34.2099 45.7472 34.1198C45.8875 34.0295 46.0059 33.9094 46.0937 33.7683C46.1837 33.6305 46.2462 33.4769 46.278 33.3159V33.3101H45.5899C45.3768 33.2985 45.165 33.3501 44.9817 33.4584C44.9123 33.5016 44.8553 33.5619 44.8166 33.6335C44.7777 33.7051 44.7585 33.7854 44.7605 33.8666C44.7578 33.9215 44.7686 33.9762 44.7919 34.0261C44.8152 34.076 44.8503 34.1196 44.8942 34.1531C45.0074 34.2285 45.1426 34.2645 45.2786 34.2556" fill="#3B438B"/>
<path d="M47.6191 34.5717L48.3072 30.6797H48.7657L48.4713 32.3458C48.5865 32.1845 48.7391 32.0528 48.9162 31.9617C49.0917 31.8691 49.2876 31.8207 49.4865 31.8209C49.8034 31.8209 50.0408 31.9173 50.199 32.11C50.3571 32.3027 50.3997 32.599 50.3269 32.9989L50.0484 34.5717H49.59L49.8575 33.053C49.9556 32.4944 49.7736 32.215 49.3116 32.215C49.0777 32.2151 48.8529 32.3047 48.684 32.4649C48.4859 32.6567 48.3591 32.9092 48.3241 33.1813L48.0776 34.5717H47.6191Z" fill="#3B438B"/>
<path d="M51.3615 34.601C51.3196 34.6022 51.2779 34.5949 51.239 34.5796C51.2001 34.5643 51.1647 34.5413 51.1352 34.5119C51.0773 34.4533 51.0449 34.3747 51.0449 34.2928C51.0449 34.2109 51.0773 34.1322 51.1352 34.0737C51.1647 34.0444 51.2001 34.0213 51.239 34.0059C51.2779 33.9906 51.3196 33.9833 51.3615 33.9846C51.4029 33.9831 51.4443 33.9904 51.4828 34.0057C51.5214 34.021 51.5563 34.0442 51.5852 34.0737C51.6413 34.1331 51.6725 34.2115 51.6725 34.2928C51.6725 34.3742 51.6413 34.4524 51.5852 34.5119C51.5563 34.5414 51.5214 34.5645 51.4828 34.5799C51.4443 34.5953 51.4029 34.6024 51.3615 34.601Z" fill="#3B438B"/>
<path d="M56.312 34.6394C56.0246 34.6479 55.7397 34.5828 55.4852 34.4503C55.2622 34.3288 55.0806 34.1444 54.9637 33.9205C54.8391 33.6741 54.7773 33.4013 54.7837 33.1258C54.7814 32.8031 54.8384 32.4827 54.9519 32.1803C55.0569 31.8983 55.2153 31.6387 55.4187 31.4156C55.615 31.2004 55.8538 31.0275 56.1202 30.9074C56.3939 30.7855 56.6909 30.7238 56.9909 30.7267C57.4277 30.7267 57.7661 30.8302 58.0062 31.0373C58.2462 31.2445 58.3713 31.5344 58.3813 31.907H57.8632C57.865 31.8002 57.8442 31.6941 57.8018 31.5958C57.7596 31.4974 57.6967 31.4091 57.6175 31.3364C57.4611 31.1976 57.23 31.1282 56.9244 31.1282C56.6965 31.1261 56.4712 31.1769 56.2666 31.2765C56.0633 31.3768 55.8839 31.5188 55.74 31.6929C55.5868 31.8788 55.4686 32.0904 55.391 32.3177C55.3055 32.5666 55.2631 32.828 55.2656 33.0908C55.2656 33.4546 55.3638 33.7375 55.56 33.9396C55.7563 34.1418 56.0291 34.2426 56.3785 34.2421C56.6475 34.2521 56.9132 34.1803 57.1398 34.0363C57.3416 33.8997 57.4968 33.7056 57.5847 33.4798H58.1029C57.9759 33.8287 57.7403 34.1286 57.43 34.3362C57.0981 34.5463 56.7101 34.6529 56.3163 34.6419" fill="#3B438B"/>
<path d="M60.1569 34.6372C60.0085 34.6438 59.8603 34.6199 59.7218 34.5668C59.5831 34.5137 59.4572 34.4328 59.3519 34.329C59.15 34.1235 59.0491 33.8477 59.0491 33.5018C59.044 33.2068 59.1143 32.9154 59.2535 32.6546C59.3862 32.4063 59.5829 32.1973 59.8238 32.049C60.0723 31.8978 60.3591 31.82 60.6507 31.8249C60.8588 31.8179 61.0651 31.8653 61.2488 31.9624C61.4044 32.0478 61.5316 32.1763 61.6147 32.3322C61.6975 32.491 61.7397 32.6675 61.7375 32.8462C61.7367 32.93 61.7286 33.0136 61.7131 33.0961C61.6969 33.1877 61.6815 33.268 61.6669 33.3368H59.505C59.4982 33.3907 59.4945 33.445 59.4941 33.4993C59.4941 33.7553 59.5669 33.9455 59.7128 34.0699C59.8544 34.1932 60.0373 34.2598 60.2259 34.2565C60.4018 34.2603 60.5751 34.2144 60.7256 34.1241C60.8666 34.0391 60.9825 33.9191 61.0621 33.7759H61.5154C61.4014 34.0259 61.2201 34.24 60.9914 34.3948C60.7464 34.5629 60.4541 34.6503 60.1561 34.6447L60.1569 34.6372ZM60.5926 32.2181C60.3715 32.2192 60.156 32.2881 59.9761 32.4155C59.7781 32.5541 59.6367 32.7583 59.5774 32.9911H61.2799C61.2833 32.9694 61.2861 32.9486 61.2883 32.9286C61.2883 32.9087 61.2883 32.8903 61.2883 32.872C61.2934 32.7828 61.2789 32.6937 61.246 32.6106C61.213 32.5275 61.1623 32.4524 61.0974 32.3905C60.9576 32.2711 60.7771 32.2092 60.5926 32.2172" fill="#3B438B"/>
<path d="M62.2441 35.7632L62.9372 31.893H63.3629L63.3191 32.3361C63.4365 32.1925 63.5789 32.0708 63.7397 31.9771C63.9268 31.8727 64.1392 31.8215 64.354 31.8288C64.5645 31.8231 64.7724 31.8756 64.9541 31.9804C65.1192 32.0787 65.2522 32.2211 65.3386 32.3911C65.4301 32.574 65.4761 32.776 65.4723 32.9801C65.4774 33.2747 65.407 33.5659 65.2682 33.8264C65.1384 34.0702 64.9452 34.2754 64.7085 34.4212C64.4679 34.5684 64.1896 34.6445 63.9063 34.6403C63.6429 34.6429 63.3882 34.5465 63.1938 34.3704C63.115 34.3002 63.051 34.2152 63.0054 34.1205L62.7051 35.7632H62.2441ZM63.9307 34.2446C64.126 34.248 64.3176 34.1935 64.4813 34.088C64.6438 33.9816 64.7737 33.834 64.8582 33.6607C64.9522 33.4686 64.9989 33.2574 64.9951 33.0442C65.0027 32.8296 64.9298 32.6196 64.7903 32.4553C64.7212 32.378 64.6355 32.3171 64.5396 32.2768C64.4436 32.2366 64.34 32.2182 64.2357 32.2228C64.0381 32.2201 63.844 32.2768 63.6791 32.3853C63.5131 32.4959 63.3793 32.6479 63.2914 32.826C63.1951 33.0182 63.1464 33.2304 63.1492 33.4449C63.1439 33.5512 63.1599 33.6575 63.1964 33.7576C63.233 33.8577 63.2893 33.9496 63.362 34.028C63.436 34.1018 63.5247 34.1594 63.6225 34.1972C63.7203 34.2349 63.825 34.2519 63.9298 34.2471" fill="#3B438B"/>
<path d="M67.1306 34.6379C66.9592 34.6448 66.789 34.6105 66.6342 34.538C66.5152 34.4793 66.4167 34.3871 66.3508 34.2731C66.2894 34.165 66.2574 34.043 66.258 33.9191C66.2536 33.7337 66.3131 33.5524 66.4263 33.405C66.5498 33.2531 66.7129 33.1378 66.8984 33.0719C67.1242 32.9902 67.3641 32.9507 67.6047 32.9552H68.3308L68.3365 32.9228C68.3474 32.862 68.3525 32.8004 68.3525 32.7387C68.3576 32.6661 68.3474 32.5932 68.3212 32.5251C68.2956 32.4569 68.2553 32.3951 68.2028 32.3438C68.0851 32.2473 67.9348 32.1991 67.7825 32.2088C67.6111 32.2078 67.4428 32.2537 67.2963 32.3413C67.1479 32.4281 67.0372 32.5656 66.9848 32.7278H66.5095C66.5645 32.5431 66.6656 32.375 66.8031 32.2388C66.9368 32.1048 67.098 32.0007 67.2752 31.9331C67.4575 31.8629 67.652 31.8273 67.8478 31.8281C68.1715 31.8281 68.4146 31.9036 68.5764 32.0547C68.6583 32.1346 68.7229 32.2309 68.7645 32.3372C68.8067 32.4434 68.8253 32.5572 68.8195 32.6712C68.8195 32.7112 68.8195 32.7545 68.8138 32.7953C68.808 32.8361 68.8042 32.8786 68.7978 32.9253L68.5061 34.5714H68.0909L68.1459 34.0956C68.041 34.2501 67.9041 34.381 67.7448 34.4797C67.5593 34.5893 67.3462 34.6437 67.1306 34.6363V34.6379ZM67.2669 34.2523C67.4339 34.2543 67.5983 34.2074 67.7384 34.1173C67.8791 34.0269 67.9975 33.9069 68.0851 33.7658C68.174 33.6272 68.2348 33.4731 68.2655 33.3118V33.306H67.5772C67.3635 33.2941 67.1518 33.3458 66.9681 33.4542C66.8984 33.4974 66.8415 33.5577 66.8031 33.6293C66.7641 33.7009 66.7449 33.7812 66.7468 33.8624C66.7442 33.9173 66.7551 33.972 66.7782 34.0219C66.8018 34.0718 66.837 34.1154 66.8805 34.149C66.9944 34.2244 67.1294 34.2604 67.2656 34.2514" fill="#3B438B"/>
<path d="M70.5872 34.5708C70.403 34.5819 70.22 34.5356 70.0633 34.4383C69.9392 34.35 69.8771 34.1995 69.8771 33.9868C69.8771 33.9509 69.8771 33.9118 69.8835 33.871C69.8893 33.8302 69.8925 33.7877 69.8995 33.7385L70.1612 32.2732H69.7402L69.8112 31.8892H70.2316L70.4068 31.2461H70.8105L70.6902 31.8892H71.4925L71.4221 32.2732H70.625L70.3544 33.7377C70.3473 33.788 70.3441 33.8386 70.3435 33.8893C70.3384 33.932 70.3435 33.9753 70.3595 34.0154C70.3748 34.0555 70.4004 34.0912 70.4337 34.1192C70.5226 34.1677 70.6237 34.1895 70.7254 34.1817H71.0805L71.0082 34.5708H70.5872Z" fill="#3B438B"/>
<path d="M72.2444 34.601C72.2022 34.6021 72.1606 34.5949 72.1222 34.5795C72.0832 34.5642 72.0474 34.5412 72.0179 34.5119C71.9604 34.4533 71.9277 34.3747 71.9277 34.2928C71.9277 34.2109 71.9604 34.1322 72.0179 34.0737C72.0474 34.0443 72.0832 34.0213 72.1222 34.0059C72.1606 33.9906 72.2022 33.9833 72.2444 33.9845C72.286 33.9832 72.3269 33.9904 72.366 34.0057C72.4043 34.0211 72.4389 34.0442 72.4683 34.0737C72.524 34.1331 72.5553 34.2114 72.5553 34.2928C72.5553 34.3741 72.524 34.4524 72.4683 34.5119C72.4389 34.5413 72.4043 34.5644 72.366 34.5797C72.3269 34.5951 72.286 34.6023 72.2444 34.601Z" fill="#3B438B"/>
<path d="M76.4043 34.5727L77.0101 31.1514H75.8752L75.9405 30.7891H78.6753L78.6101 31.1514H77.4695L76.863 34.5727H76.4043Z" fill="#3B438B"/>
<path d="M79.7116 34.6395C79.5632 34.6461 79.4148 34.6222 79.2766 34.5691C79.1378 34.516 79.0118 34.435 78.9069 34.3312C78.7047 34.1258 78.6036 33.85 78.6036 33.504C78.6004 33.2094 78.6714 32.9185 78.8115 32.6585C78.9446 32.4103 79.141 32.2012 79.3822 32.0529C79.6304 31.9017 79.917 31.824 80.2087 31.8288C80.4166 31.8218 80.6233 31.8692 80.8069 31.9663C80.9623 32.0517 81.0896 32.1802 81.1728 32.3362C81.2559 32.4949 81.2975 32.6714 81.2956 32.8501C81.295 32.934 81.2866 33.0176 81.2713 33.1C81.2547 33.1917 81.2393 33.2719 81.2252 33.3408H79.0629C79.0565 33.3947 79.0527 33.4489 79.0521 33.5032C79.0521 33.7592 79.125 33.9494 79.2709 34.0738C79.4122 34.1972 79.5952 34.2637 79.7839 34.2605C79.9598 34.2643 80.1332 34.2183 80.2836 34.128C80.4249 34.0431 80.5407 33.923 80.62 33.7798H81.0736C80.9597 34.0298 80.7781 34.244 80.5497 34.3987C80.3047 34.5669 80.0123 34.6543 79.7142 34.6486L79.7116 34.6395ZM80.1505 32.222C79.9298 32.2231 79.7142 32.2921 79.5344 32.4194C79.3361 32.558 79.1947 32.7622 79.1352 32.9951H80.8382C80.8414 32.9734 80.844 32.9526 80.8465 32.9326C80.8465 32.9126 80.8465 32.8943 80.8465 32.876C80.8516 32.7868 80.8369 32.6976 80.8043 32.6145C80.771 32.5314 80.7205 32.4564 80.6552 32.3944C80.5158 32.2751 80.3354 32.2131 80.1505 32.2212" fill="#3B438B"/>
<path d="M82.0195 34.574L82.4942 31.8933H82.9145L82.8659 32.369C82.9842 32.2016 83.1423 32.0658 83.3265 31.9741C83.5293 31.8743 83.7526 31.8243 83.9784 31.8283L83.8946 32.304H83.7692C83.6125 32.303 83.4564 32.3286 83.3086 32.3798C83.164 32.4306 83.0367 32.5193 82.9401 32.6364C82.8281 32.7804 82.7565 32.9511 82.7328 33.1312L82.4782 34.574H82.0195Z" fill="#3B438B"/>
<path d="M84.2266 35.7632L84.9194 31.893H85.3448L85.3013 32.3361C85.4184 32.1925 85.561 32.0708 85.7223 31.9771C85.9091 31.8727 86.1214 31.8215 86.3358 31.8288C86.5462 31.8231 86.7548 31.8756 86.9365 31.9804C87.1015 32.0787 87.2346 32.2211 87.321 32.3911C87.4124 32.574 87.4585 32.776 87.4547 32.9801C87.4572 33.2738 87.3856 33.5634 87.2455 33.8223C87.1156 34.066 86.9224 34.2713 86.6857 34.417C86.4452 34.5643 86.1669 34.6403 85.8835 34.6361C85.6199 34.6388 85.3653 34.5423 85.1708 34.3663C85.0921 34.296 85.0282 34.211 84.9827 34.1164L84.6821 35.7591L84.2266 35.7632ZM85.9129 34.2446C86.108 34.248 86.2999 34.1935 86.4637 34.088C86.6256 33.9816 86.7561 33.834 86.8405 33.6607C86.9345 33.4686 86.9812 33.2574 86.9768 33.0442C86.9851 32.8296 86.9122 32.6196 86.7727 32.4553C86.7036 32.378 86.6179 32.3171 86.5219 32.2768C86.426 32.2366 86.3223 32.2182 86.2181 32.2228C86.0204 32.2201 85.8259 32.2768 85.6615 32.3853C85.4951 32.4959 85.3615 32.6479 85.2738 32.826C85.1772 33.0182 85.1286 33.2304 85.1311 33.4449C85.126 33.5512 85.142 33.6575 85.1785 33.7576C85.215 33.8577 85.2713 33.9496 85.3442 34.028C85.4184 34.1018 85.5067 34.1594 85.6046 34.1972C85.7024 34.2349 85.8073 34.2519 85.9123 34.2471" fill="#3B438B"/>
<path d="M89.4363 34.6395C89.2879 34.6461 89.1394 34.6222 89.0006 34.5691C88.8624 34.516 88.7364 34.435 88.6309 34.3312C88.4293 34.1258 88.3283 33.85 88.3283 33.504C88.3244 33.2094 88.3961 32.9185 88.5362 32.6585C88.6686 32.4103 88.8656 32.2012 89.1062 32.0529C89.355 31.9017 89.6416 31.824 89.9333 31.8288C90.1413 31.8218 90.3479 31.8692 90.5315 31.9663C90.687 32.0517 90.8143 32.1802 90.8974 32.3362C90.9799 32.4949 91.0222 32.6714 91.0203 32.8501C91.019 32.934 91.0113 33.0176 90.9959 33.1C90.9793 33.1917 90.964 33.2719 90.9492 33.3408H88.7876C88.7806 33.3947 88.7774 33.4489 88.7767 33.5032C88.7767 33.7592 88.8497 33.9494 88.9955 34.0738C89.1369 34.1972 89.3199 34.2637 89.5086 34.2605C89.6845 34.2643 89.8579 34.2183 90.0082 34.128C90.1489 34.0431 90.2654 33.923 90.3447 33.7798H90.7983C90.6838 34.0298 90.5027 34.244 90.2737 34.3987C90.0287 34.5669 89.737 34.6543 89.4388 34.6486L89.4363 34.6395ZM89.8751 32.222C89.6538 32.2231 89.4388 32.2921 89.2584 32.4194C89.0608 32.558 88.9194 32.7622 88.8599 32.9951H90.5622C90.566 32.9734 90.5686 32.9526 90.5712 32.9326C90.5712 32.9126 90.5712 32.8943 90.5712 32.876C90.5756 32.7868 90.5616 32.6976 90.5283 32.6145C90.4957 32.5314 90.4451 32.4564 90.3799 32.3944C90.2404 32.2751 90.0594 32.2131 89.8751 32.2212" fill="#3B438B"/>
<path d="M91.7461 34.574L92.2208 31.8933H92.6411L92.5925 32.369C92.7108 32.2016 92.8688 32.0658 93.0531 31.9741C93.2559 31.8743 93.4791 31.8243 93.705 31.8283L93.6212 32.304H93.4958C93.339 32.303 93.1829 32.3286 93.0345 32.3798C92.8906 32.4306 92.7633 32.5193 92.666 32.6364C92.5547 32.7804 92.4831 32.9511 92.4594 33.1312L92.2073 34.574H91.7461Z" fill="#3B438B"/>
<path d="M95.2882 34.6391C95.0829 34.6431 94.8795 34.5937 94.6997 34.4958C94.5308 34.4031 94.392 34.2643 94.3005 34.0959C94.2026 33.912 94.154 33.7065 94.1585 33.4987C94.1559 33.2705 94.1981 33.0441 94.2839 32.8322C94.3638 32.6339 94.4828 32.4531 94.6332 32.2999C94.7822 32.1476 94.9613 32.027 95.1597 31.9452C95.3573 31.8634 95.5704 31.8223 95.7847 31.8243C96.1122 31.8243 96.3719 31.909 96.5651 32.0783C96.6617 32.1647 96.7379 32.2709 96.7884 32.3895C96.8396 32.508 96.8639 32.6361 96.8594 32.7648H96.3905C96.3963 32.6846 96.3809 32.6042 96.347 32.5314C96.3124 32.4585 96.26 32.3955 96.1941 32.3482C96.0546 32.2538 95.8883 32.2057 95.7188 32.2108C95.5249 32.2089 95.3349 32.2642 95.1731 32.3699C95.0061 32.4799 94.8705 32.6308 94.7803 32.8081C94.6792 33.0046 94.6287 33.2225 94.6332 33.4429C94.6332 33.6989 94.7042 33.8971 94.8455 34.0377C94.9121 34.1056 94.992 34.1594 95.0803 34.1957C95.1686 34.2319 95.2633 34.2499 95.3586 34.2484C95.5422 34.249 95.7226 34.2004 95.8806 34.1076C96.0425 34.014 96.1653 33.8663 96.2267 33.6911H96.6963C96.6278 33.8737 96.5216 34.0402 96.3854 34.1801C96.2466 34.3228 96.0802 34.4363 95.8966 34.5133C95.7041 34.5935 95.4968 34.6341 95.2882 34.6324" fill="#3B438B"/>
<path d="M98.4527 34.6366C98.2812 34.6434 98.111 34.6091 97.9562 34.5366C97.8372 34.4779 97.7387 34.3858 97.6728 34.2717C97.6114 34.1636 97.5794 34.0416 97.5801 33.9177C97.5756 33.7324 97.6351 33.5511 97.7483 33.4037C97.8718 33.2517 98.0349 33.1365 98.2205 33.0704C98.4469 32.9887 98.6862 32.9492 98.9274 32.9539H99.6528L99.6586 32.9214C99.6695 32.8606 99.6752 32.799 99.6746 32.7372C99.6803 32.6646 99.6695 32.5918 99.6432 32.5236C99.6176 32.4555 99.5773 32.3937 99.5249 32.3424C99.4072 32.2459 99.2568 32.1976 99.1046 32.2074C98.9331 32.2064 98.7649 32.2523 98.6184 32.3399C98.4706 32.4267 98.3593 32.5642 98.3068 32.7264H97.8321C97.8846 32.5414 97.9831 32.3725 98.1187 32.2349C98.2524 32.1009 98.413 31.9968 98.5909 31.9292C98.7732 31.859 98.9677 31.8234 99.1634 31.8242C99.4871 31.8242 99.7296 31.8997 99.8921 32.0508C99.974 32.1307 100.038 32.227 100.08 32.3333C100.122 32.4395 100.141 32.5533 100.135 32.6673C100.135 32.7072 100.135 32.7506 100.129 32.7914C100.123 32.8322 100.12 32.8747 100.113 32.9214L99.8287 34.5699H99.4142L99.4686 34.0943C99.3637 34.2488 99.2268 34.3796 99.0675 34.4783C98.8826 34.5879 98.6689 34.6423 98.4533 34.6349L98.4527 34.6366ZM98.5896 34.2509C98.7572 34.2529 98.921 34.206 99.0617 34.1159C99.2018 34.0255 99.3202 33.9055 99.4084 33.7644C99.4967 33.6258 99.5581 33.4717 99.5882 33.3104V33.3045H98.8998C98.6868 33.2927 98.4744 33.3444 98.2908 33.4528C98.2217 33.496 98.1648 33.5564 98.1258 33.6279C98.0874 33.6995 98.0676 33.7798 98.0701 33.861C98.0676 33.9159 98.0778 33.9706 98.1015 34.0205C98.1245 34.0704 98.1597 34.114 98.2038 34.1476C98.3171 34.223 98.4527 34.259 98.5889 34.2501" fill="#3B438B"/>
<path d="M100.867 35.7609L101.789 34.3123H101.637L100.987 31.8906H101.473L102.013 33.9765L103.329 31.8906H103.809L101.348 35.7609H100.867Z" fill="#3B438B"/>
<path d="M104.986 34.6379C104.815 34.6448 104.645 34.6105 104.49 34.538C104.371 34.4793 104.272 34.3871 104.206 34.2731C104.145 34.165 104.113 34.043 104.114 33.9191C104.109 33.7337 104.169 33.5524 104.282 33.405C104.405 33.2531 104.568 33.1378 104.754 33.0719C104.98 32.9902 105.22 32.9507 105.46 32.9552H106.186L106.192 32.9228C106.203 32.862 106.208 32.8004 106.208 32.7387C106.213 32.6661 106.202 32.5932 106.177 32.5251C106.151 32.4569 106.111 32.3951 106.058 32.3438C105.941 32.2473 105.79 32.1991 105.638 32.2088C105.467 32.2078 105.298 32.2537 105.152 32.3413C105.003 32.4281 104.893 32.5656 104.84 32.7278H104.365C104.419 32.5434 104.519 32.3753 104.655 32.2388C104.789 32.1048 104.95 32.0007 105.127 31.9331C105.31 31.8629 105.504 31.8273 105.7 31.8281C106.024 31.8281 106.266 31.9036 106.429 32.0547C106.511 32.1346 106.575 32.2309 106.617 32.3372C106.658 32.4434 106.678 32.5572 106.672 32.6712C106.672 32.7112 106.672 32.7545 106.665 32.7953C106.66 32.8361 106.656 32.8786 106.649 32.9253L106.361 34.5714H105.946L106.001 34.0956C105.896 34.2501 105.76 34.381 105.6 34.4797C105.415 34.5893 105.202 34.6437 104.986 34.6363V34.6379ZM105.122 34.2523C105.289 34.2543 105.454 34.2074 105.594 34.1173C105.735 34.0269 105.853 33.9069 105.941 33.7658C106.03 33.6272 106.09 33.4731 106.12 33.3118V33.306H105.433C105.219 33.2941 105.007 33.3458 104.824 33.4542C104.754 33.4974 104.697 33.5577 104.659 33.6293C104.62 33.7009 104.6 33.7812 104.602 33.8624C104.599 33.9185 104.61 33.9746 104.634 34.0256C104.658 34.0767 104.694 34.121 104.739 34.1548C104.853 34.2303 104.988 34.2663 105.124 34.2573" fill="#3B438B"/>
<path d="M107.674 34.601C107.632 34.6021 107.59 34.5949 107.552 34.5795C107.513 34.5642 107.477 34.5412 107.448 34.5119C107.39 34.4533 107.357 34.3747 107.357 34.2928C107.357 34.2109 107.39 34.1322 107.448 34.0737C107.477 34.0443 107.513 34.0213 107.552 34.0059C107.59 33.9906 107.632 33.9833 107.674 33.9845C107.716 33.9832 107.757 33.9904 107.796 34.0057C107.834 34.0211 107.869 34.0442 107.898 34.0737C107.954 34.1331 107.985 34.2114 107.985 34.2928C107.985 34.3741 107.954 34.4524 107.898 34.5119C107.869 34.5413 107.834 34.5644 107.796 34.5797C107.757 34.5951 107.716 34.6023 107.674 34.601Z" fill="#3B438B"/>
</svg>
